<?xml version="1.0" encoding="utf-8"?>
<!-- Generator: Adobe Illustrator 22.1.0, SVG Export Plug-In . SVG Version: 6.00 Build 0)  -->
<svg version="1.1" id="Layer_1" xmlns="http://www.w3.org/2000/svg" xmlns:xlink="http://www.w3.org/1999/xlink" x="0px" y="0px"
	 viewBox="0 0 104 61" style="enable-background:new 0 0 104 61;" xml:space="preserve">
<style type="text/css">
	.st0{fill-rule:evenodd;clip-rule:evenodd;fill:#1D3763;}
	.st1{fill:#1D3763;}
	
</style>
<g>
	<g>
		<path class="st0" d="M51.1,28.1l1.7-0.1l0.5,0c1.7,0,2.2-1.4,2.7-2.8c0.7-3.6-1-6-3.1-5.9c-1.2,0.1-1.4-0.2-3.1-0.3
			c-1.2-0.1-1.5-0.7-4.1-0.4c-1.1,0-1.2,1.1-4,1.1c-2.6-0.2-3-0.7-3.6-1.8c-0.8-1.4,0.7-2.2,0.3-3.8c-1.2-3.4-7.4-1.8-7.1-6.6
			c0.1-0.8,0.8-2,1.7-2.9c0.9-1.4,1.5-0.2,2.3-0.7c0.4-0.3,0-0.8,1-1.1c1-0.3,2.9,1.3,5.1,0.5c1.2-0.6,2-2.9,3.9-2.9
			c0.8,0,2.1,2.2,3.1,2.2c1,0,2,1.5,2.6,1.5c0.6,0,1.1-0.7,1.5-0.7c1,0,1,1.2,1.9,1.2c1.5,0,2.2-1.9,3.5-2c1.3-0.1,2.3,1.4,3.3,1
			c1-0.4,3-1,5.2-0.9c6.1,0.1,6.3,1.5,6.4,3.5c0.5,1.6,4.6,1.9,3.3,4.3c-0.2,0.5-2.1,1.5-4.1,1.1c-0.9-0.2-1.2-0.6-2.3-0.7
			c-1.5-0.3-2.4,1.5-1.6,2.1c0.8,0.5,1.7,0.7,2,1c1.4,1.5-1,4-3.1,3.5c-2.1-0.5-2.5-0.6-3.4,0.7c-0.5,0.5-0.3,0.7-1.1,0.6
			c-0.8-0.1-2.1-0.8-3,0.3c-0.2,0.2-0.9,2.3-0.9,4c0,1.8,0.2,2.2,0.2,2.2c1.1,3.4,31.1,3.6,42,3.8c1.3,0-23,1-48.7,1
			C27.7,30.1,2.6,29,2.6,29c8.5-0.6,26.3-0.8,26.3-0.8h0.3h0.5c-0.2-0.8,0-1.3,0.2-2.1c0-0.6-0.2-0.3-0.6-0.5
			c-0.2-0.5-0.3-1.1-0.2-1.3c0.1-0.4-0.2-1.1-0.4-1.6c-0.5-1.7,0.1-3,0.2-3.3c0.3-0.5,0.8-0.3,1.1-0.7c0.1-0.1,0.2-0.3,0.1-0.5
			c-0.2-0.8-0.7-0.2-0.8-0.3c-0.1-0.2,0.3-0.2,0.4-0.4c-0.2-1.4,1.5-1.9,2.3-0.8c0.2,0.1,0.5-0.1,0.6,0c-0.1,0.3-0.8,0.3-0.3,1.1
			c0,0.2-0.3,0-0.3,0.3c0,0.2,0.1,0.4-0.5,0.4c0.3,1.3,0.9,1,1.1,1.5c0.1,0.3,0,0.7,0.1,1c0.1,0.7,0.5,0.9,0.8,1.5
			c0.8,1.6,2.3,3.9,3.1,5.5l0.4,0l1.1,0L37.9,27c-0.3,0-0.2-0.5-0.2-0.6c0-0.1,0,0.2-0.3,0.4c-0.1,0.1-0.2,0.1-0.3,0.1
			c-0.4-0.2-0.7-1,0-1c-0.1-0.3,0.3-1.3,0.5-1.4c0.2-0.5,0.1-0.6,0.7-0.6c0.2-0.4,0.5-0.6,1-0.4c0.1-0.4,0.4-0.3,0.7-0.3
			c0.5-0.2,0.7-0.1,1,0.2c0.3-0.1,0.6,0,0.8,0.3c0.3-0.1,0.8-0.3,1,0c0-0.1,0.3-0.2,0.3-0.1c0.5,0,0.6,0.9,0.8,1.3
			c0.2,0.3,0.3,0.9-0.2,0.7c-0.2,0-0.4-0.2-0.5-0.2c0.3,0.3,0.1,0.6-0.3,0.7c0,0.5-0.2,0.4-0.6,0.4c0.5,0.3-0.2,0.5-0.2,0.7v1l1.2,0
			l3.6,0L46.8,27c-0.3,0-0.2-0.5-0.2-0.6c0-0.1,0,0.2-0.3,0.4c-0.1,0.1-0.2,0.1-0.3,0.1c-0.4-0.2-0.7-1,0-1
			c-0.1-0.3,0.3-1.3,0.5-1.4c0.2-0.5,0.1-0.6,0.7-0.6c0.2-0.4,0.5-0.6,1-0.4c0.1-0.4,0.4-0.3,0.7-0.3c0.5-0.2,0.7-0.1,1,0.2
			c0.3-0.1,0.6,0,0.8,0.3c0.3-0.1,0.8-0.3,1,0c0-0.1,0.3-0.2,0.3-0.1c0.5,0,0.6,0.9,0.8,1.3c0.2,0.3,0.3,0.9-0.2,0.7
			c-0.2,0-0.4-0.2-0.5-0.2c0.3,0.3,0.1,0.6-0.3,0.7c0,0.5-0.2,0.4-0.6,0.4c0.5,0.3-0.2,0.5-0.2,0.7L51.1,28.1z M47.9,28.1
			c0.2,0.1,2,0,2.4,0c0-0.5-0.2-1,0-1.5c-0.1,0-1.6,0.5-1.8,0.1L47.9,28.1z M41.4,28.1c0-0.5-0.1-1,0-1.5c-0.1,0-1.6,0.5-1.8,0.1
			L39,28.1C39.2,28.3,41,28.1,41.4,28.1 M36.3,28.1c-2.5-3.8-4.4-6.8-4.5-7.3c0.1,1.2,0.5,1.6,0.2,2.5c-0.2,0.5,0.1,1.1,0,1.7
			c-0.1,0.5-0.6,1.2-0.6,1.5c0,0.2,0,0.5,0.2,0.6c0.4,0.2,0.6,0.2,0.9,1L36.3,28.1z M65.2,7c0,0,3.8,0.3,3-1.6
			c-1.2-1.2-2,0.5-3.5,0.5c0,0-1.4-0.5-3,0.7c-1.2,0.9-0.8,1.6,0.2,1.5c0.2,1-0.9,0.6-0.7,2.1c0.2,1.3,1.6,0.7,2.1,0.4
			c1.5-0.7,0.1-1.8,0.3-2.4C63.9,6.8,65.2,7,65.2,7 M53.4,10.2c0-1,1-0.7,0.9-1.5C54,7.4,53.1,8,52.8,7.6c-0.3-0.5,0.2-1.3-0.7-1.7
			c-1.1-0.4-0.9,0.4-1.4,0.7c-0.4,0.2-1.2-0.3-1.7,0.4c-0.8,1,0.4,1.9,1.3,2.1c0.6,0.1,1.3,0.2,1.4,0.4c0.2,0.7-0.8,0.5-0.4,1.6
			c0.3,0.7,1.6,0.1,1.7,0.8c0.1,0.9-0.5,0.9,0.2,1.8c0.3,0.4,1,0.4,1.4,0.2c0.7-0.3,1.1-1.1,1.1-1.5c0-0.4-0.3-0.8-0.7-1.2
			C54.4,10.8,53.4,11.3,53.4,10.2 M36.9,5.9c-0.9,1.1,1.5,1.5,1.5,1.5l0.7,0.3c0,0-3.2,1-1.6,1.8c2,1,1.7-0.5,2.4-0.6
			c1.1-0.2,0.8,1,1.7,0.9c0.7,0,0.3-0.5,1-0.9c0.8-0.5,2.3,1.1,2.9,0.4c0.5-0.9-2.1-2.7-3.5-2.9c-1.6-0.4-2.4,0.2-2.4,0.2
			s-0.9,0.6-1.3-0.3C38.4,6.4,37.7,5.2,36.9,5.9 M64.4,13.7c0.1-0.7,1.5-1.1,0.9-1.6c-0.5-0.5-0.7,0.6-1.1,0.8
			c-0.6,0.4-1.2-0.2-1.7,0.2c-0.2,0.4,0.2,0.6-0.1,1.1c0,0-0.8,0.4-0.5,0.9c0.2,0.4,0,0.7,0.6,0.8c0.4,0.1,0.5-0.6,0.7-0.8
			c0.2-0.3,1,0,1.2-0.4C64.7,14.3,64.3,14.1,64.4,13.7 M56,19.2c0.9,0.4,1.3,1.9,1.7,0.9c0.1-3.8,2.8-3.3,1.9-5.1
			c-1.4-0.9-1.4,0.9-2.1,1.2c-0.5,0.2-0.9-0.4-1.3,0c-0.4,0.5,0.1,1-0.3,1.4c-0.3,0.4-1.7,0.2-2.8,0c-1.1-0.2-3.1-2.2-3.5-1.1
			C49.6,17.6,54.6,18.5,56,19.2 M43,14.2c-0.1,0.4-3.3-0.4-2.8,0.4c0.3,0.5,1-0.1,1.3,0.3c0.5,0.2,0.4,0.6,0.9,0.8
			c0.6,0.4,1.2,0.2,1.2,0.2c1.1-0.1,1.5,0.7,2.2,0.6c0.5-0.1-0.3-0.4,0-0.7c0.1-0.8,0.8-0.1,0.8-0.1s1.7,1.4,1.9,0.5
			c0.1-0.9-0.9-0.5-1.3-0.8c-0.8-0.6-0.3-0.7-1.1-1.1c-1.5-0.9-2.4-0.3-2.7-1.1c-0.5-1.3-1.4-1.7-2.4-1.3c-0.8,0.4,0.3,1.3,0.3,1.3
			C41.7,13.6,43.1,13.5,43,14.2"/>
		<path class="st1" d="M12.4,38.5c-0.6-2.4-2-3.1-4.1-3.1c-3.9,0-5.6,2.9-5.6,6.2c0,4.1,2.1,6.8,5.6,6.8c2.4,0,3.5-1.1,4.6-3.4
			l0.5,0.1c-0.3,0.9-0.8,2.6-1.1,3.4c-0.6,0.1-2.5,0.6-4.1,0.6c-5.5,0-7.8-3.7-7.8-7c0-4.4,3.4-7.4,8.2-7.4c1.8,0,3.3,0.4,3.9,0.6
			c0.2,1.2,0.3,2.1,0.4,3.2L12.4,38.5z"/>
		<path class="st1" d="M19.8,48.4l0.4,0c0.6-0.1,0.8-0.2,0.4-1.2l-0.7-1.7h-3c-0.2,0.3-0.5,1.3-0.7,2c-0.3,0.7-0.1,0.9,0.6,1l0.5,0
			v0.5h-3.8v-0.5c1-0.1,1.3-0.2,1.9-1.7l3.2-7.5l0.5-0.1l3.2,7.8c0.5,1.3,0.9,1.3,1.9,1.4v0.5h-4.4V48.4z M17.1,44.7h2.5l-1.3-3.2h0
			L17.1,44.7z"/>
		<path class="st1" d="M24.9,45.9c0.3,1.1,1.4,2.6,2.9,2.6c1.2,0,1.9-0.7,1.9-1.7c0-1.2-1.1-1.7-2.1-2.1c-1.1-0.4-2.8-1.1-2.8-2.7
			c0-1.7,1.4-2.8,3.5-2.8c1,0,1.7,0.3,2.1,0.4c0.2,0.6,0.2,1.4,0.4,2.4l-0.5,0c-0.3-1.2-1.1-2.1-2.3-2.1c-1.1,0-1.7,0.7-1.7,1.5
			c0,1.1,1,1.5,2,1.8c1.4,0.5,3,1.2,3,3c0,1.8-1.6,3-3.7,3c-1.4,0-2.4-0.5-2.7-0.7c-0.1-0.3-0.3-1.5-0.5-2.4L24.9,45.9z"/>
		<path class="st1" d="M38.2,48.4l0.4,0c0.6-0.1,0.8-0.2,0.4-1.2l-0.7-1.7h-3c-0.2,0.3-0.5,1.3-0.7,2c-0.3,0.7-0.1,0.9,0.6,1l0.5,0
			v0.5h-3.8v-0.5c1-0.1,1.3-0.2,1.9-1.7l3.2-7.5l0.5-0.1l3.2,7.8c0.5,1.3,0.9,1.3,1.9,1.4v0.5h-4.4V48.4z M35.4,44.7h2.5l-1.3-3.2h0
			L35.4,44.7z"/>
		<path class="st1" d="M49,45.8c0,2.3,0.2,2.5,1.9,2.6v0.5h-5.7v-0.5c1.8-0.1,2-0.3,2-2.6v-7.7c0-2.3-0.2-2.5-1.9-2.6v-0.5h5.5
			c1.4,0,2.6,0.2,3.4,0.7c0.9,0.5,1.4,1.5,1.4,2.7c0,1.8-1.1,3-2.9,3.7c0.4,0.6,1.3,2.1,1.9,3c0.8,1.1,1.2,1.7,1.8,2.3
			c0.5,0.5,0.8,0.9,1.6,1.1l0,0.4h-0.3c-2.5-0.1-3.2-0.8-4.1-2c-0.7-1-1.6-2.5-2.2-3.5c-0.3-0.6-0.7-0.8-1.4-0.8H49V45.8z M49,42.2
			h1.3c0.9,0,1.6-0.1,2.2-0.6c0.9-0.7,1.3-1.8,1.3-2.8c0-2.2-1.6-3.1-3.3-3.1c-0.7,0-1,0-1.2,0.1c-0.1,0-0.2,0.1-0.2,0.6V42.2z"/>
		<path class="st1" d="M60.9,41.6c0-1.6-0.1-1.7-1.5-1.8v-0.5H67c0,0.4,0.1,1.4,0.2,2.4l-0.5,0c-0.2-0.7-0.3-1.1-0.5-1.4
			c-0.2-0.2-0.7-0.4-1.7-0.4h-1.2c-0.6,0-0.6,0-0.6,0.5v3h1.7c1.4,0,1.4-0.1,1.6-1.2h0.5v3.1h-0.5c-0.2-1.2-0.2-1.2-1.6-1.2h-1.7
			v2.3c0,0.8,0.1,1.3,0.4,1.4c0.3,0.1,0.8,0.2,1.7,0.2c0.9,0,1.6-0.1,1.9-0.5c0.3-0.3,0.6-0.7,0.8-1.4l0.6,0.1
			c-0.1,0.6-0.4,2.1-0.6,2.5h-8.2v-0.5c1.5-0.1,1.6-0.2,1.6-1.8V41.6z"/>
		<path class="st1" d="M69.1,48.9v-0.5c1.5-0.1,1.6-0.2,1.6-1.8v-5c0-1.6-0.1-1.7-1.5-1.8v-0.5h4.8v0.5c-1.5,0.1-1.6,0.2-1.6,1.8v5
			c0,0.8,0.1,1.3,0.4,1.4c0.3,0.1,0.8,0.2,1.6,0.2c0.8,0,1.5-0.1,1.9-0.5c0.3-0.3,0.5-0.7,0.7-1.4l0.6,0.1c-0.1,0.5-0.4,2.1-0.6,2.5
			H69.1z"/>
		<path class="st1" d="M81.2,49c-1.1-2.6-2.7-6.3-3.4-7.9c-0.5-1.1-0.7-1.2-1.7-1.3v-0.5h4.4v0.5L79.9,40c-0.6,0.1-0.6,0.2-0.4,0.8
			c0.3,0.8,1.6,3.7,2.5,5.9c0.8-1.7,1.9-4.8,2.3-5.8c0.2-0.7,0.1-0.9-0.6-1l-0.5-0.1v-0.5h3.9v0.5c-1.1,0.1-1.4,0.3-2.1,1.7
			c-0.6,1.1-2,4.4-3.3,7.4H81.2z"/>
		<path class="st1" d="M91.6,48.4l0.4,0c0.6-0.1,0.8-0.2,0.4-1.2l-0.7-1.7h-3c-0.2,0.3-0.5,1.3-0.7,2c-0.3,0.7-0.1,0.9,0.6,1l0.5,0
			v0.5h-3.8v-0.5c1-0.1,1.3-0.2,1.9-1.7l3.2-7.5l0.5-0.1l3.2,7.8c0.5,1.3,0.9,1.3,1.9,1.4v0.5h-4.4V48.4z M88.9,44.7h2.5l-1.3-3.2h0
			L88.9,44.7z"/>
		<path class="st1" d="M97.1,45.9c0.3,1.1,1.4,2.6,2.9,2.6c1.2,0,1.9-0.7,1.9-1.7c0-1.2-1.1-1.7-2.1-2.1C98.7,44.3,97,43.6,97,42
			c0-1.7,1.4-2.8,3.5-2.8c1,0,1.7,0.3,2.1,0.4c0.2,0.6,0.2,1.4,0.4,2.4l-0.5,0c-0.3-1.2-1.1-2.1-2.3-2.1c-1.1,0-1.7,0.7-1.7,1.5
			c0,1.1,1,1.5,2,1.8c1.4,0.5,3,1.2,3,3c0,1.8-1.6,3-3.7,3c-1.4,0-2.4-0.5-2.7-0.7c-0.1-0.3-0.3-1.5-0.5-2.4L97.1,45.9z"/>
		<path class="st1" d="M16.2,59.6h-0.8l-0.4-0.9H13l-0.3,0.9h-0.8l1.8-4.3h0.7L16.2,59.6z M13.3,58.1h1.6l-0.8-2L13.3,58.1z"/>
		<polygon class="st1" points="17.2,59.6 17.2,55.3 18,55.3 18,59 20.1,59 20.1,59.6 		"/>
		<polygon class="st1" points="24,57.7 22,57.7 22,59 24.4,59 24.4,59.6 21.3,59.6 21.3,55.3 24.4,55.3 24.4,55.9 22,55.9 22,57.1 
			24,57.1 		"/>
		<polygon class="st1" points="29.4,59.6 28.9,59.6 26.4,56.5 26.4,59.6 25.6,59.6 25.6,55.3 26.2,55.3 28.7,58.3 28.7,55.3 
			29.4,55.3 		"/>
		<polygon class="st1" points="30.6,55.3 34,55.3 34,55.9 32.7,55.9 32.7,59.6 31.9,59.6 31.9,55.9 30.6,55.9 		"/>
		<polygon class="st1" points="37.9,57.7 35.9,57.7 35.9,59 38.3,59 38.3,59.6 35.2,59.6 35.2,55.3 38.3,55.3 38.3,55.9 35.9,55.9 
			35.9,57.1 37.9,57.1 		"/>
		<path class="st1" d="M39.5,58.8c0,0,0.3,0.2,0.7,0.2c0.6,0,0.8-0.3,0.8-1v-2.7h0.7v2.9c0,0.9-0.5,1.5-1.5,1.5
			c-0.7,0-1.1-0.4-1.1-0.4L39.5,58.8z"/>
		<path class="st1" d="M43,57.4c0-1.3,0.9-2.3,2.2-2.3c1.3,0,2.2,1,2.2,2.3c0,1.2-0.9,2.2-2.2,2.2C43.8,59.7,43,58.7,43,57.4
			 M46.6,57.4c0-0.9-0.6-1.6-1.5-1.6c-0.9,0-1.4,0.7-1.4,1.6c0,0.9,0.6,1.6,1.4,1.6C46,59,46.6,58.3,46.6,57.4"/>
		<rect x="50.5" y="54.7" class="st1" width="0.7" height="5.8"/>
		<path class="st1" d="M54.5,55.3h1.8c1,0,1.7,0.5,1.7,1.4c0,0.9-0.7,1.5-1.7,1.5h-1.1v1.4h-0.7V55.3z M56.3,55.9h-1v1.7h1
			c0.6,0,1-0.3,1-0.8C57.3,56.2,56.9,55.9,56.3,55.9"/>
		<path class="st1" d="M58.9,57.4c0-1.3,0.9-2.3,2.2-2.3c1.3,0,2.2,1,2.2,2.3c0,1.2-0.9,2.2-2.2,2.2C59.8,59.7,58.9,58.7,58.9,57.4
			 M62.5,57.4c0-0.9-0.6-1.6-1.5-1.6c-0.9,0-1.4,0.7-1.4,1.6c0,0.9,0.6,1.6,1.4,1.6C62,59,62.5,58.3,62.5,57.4"/>
		<path class="st1" d="M66.3,55.3c1,0,1.7,0.5,1.7,1.4c0,0.7-0.4,1.1-0.9,1.3v0l1,1.4v0.1h-0.8l-1-1.4h-1v1.4h-0.7v-4.3H66.3z
			 M66.3,55.9h-1v1.6h1.1c0.5,0,0.9-0.3,0.9-0.8C67.3,56.2,66.9,55.9,66.3,55.9"/>
		<polygon class="st1" points="68.9,55.3 72.3,55.3 72.3,55.9 71,55.9 71,59.6 70.2,59.6 70.2,55.9 68.9,55.9 		"/>
		<path class="st1" d="M73.4,57.8v-2.5h0.7v2.5c0,0.7,0.4,1.2,1.1,1.2c0.8,0,1.1-0.5,1.1-1.2v-2.5h0.7v2.5c0,1.1-0.7,1.9-1.8,1.9
			C74.1,59.7,73.4,58.9,73.4,57.8"/>
		<path class="st1" d="M81.7,57.8h-1.3v-0.6h2.1v0.4c0,1.3-0.8,2.1-2,2.1c-1.4,0-2.2-1-2.2-2.2c0-1.3,0.9-2.3,2.2-2.3
			c1.1,0,1.6,0.6,1.6,0.6l-0.4,0.5c0,0-0.4-0.4-1.1-0.4c-0.9,0-1.5,0.7-1.5,1.6c0,0.9,0.6,1.6,1.4,1.6C81.2,59,81.7,58.5,81.7,57.8
			L81.7,57.8z"/>
		<path class="st1" d="M87.3,59.6h-0.8l-0.4-0.9h-2.1l-0.3,0.9H83l1.8-4.3h0.7L87.3,59.6z M84.4,58.1H86l-0.8-2L84.4,58.1z"/>
		<polygon class="st1" points="88.3,59.6 88.3,55.3 89,55.3 89,59 91.2,59 91.2,59.6 		"/>
	</g>
</g>
</svg>
